<svg width="51" height="60" viewBox="0 0 51 60" fill="none" xmlns="http://www.w3.org/2000/svg">
<path d="M16.6347 26.7415C22.8629 26.7415 27.9118 21.7355 27.9118 15.5602C27.9118 9.38486 22.8629 4.37878 16.6347 4.37878C10.4066 4.37878 5.35767 9.38486 5.35767 15.5602C5.35767 21.7355 10.4066 26.7415 16.6347 26.7415Z" fill="url(#paint0_radial_3_240)"/>
<path d="M25.1397 60C39.024 60 50.2794 48.8404 50.2794 35.0744C50.2794 21.3084 39.024 10.1488 25.1397 10.1488C11.2554 10.1488 0 21.3084 0 35.0744C0 48.8404 11.2554 60 25.1397 60Z" fill="url(#paint1_radial_3_240)"/>
<path d="M25.8901 20.2976C31.5479 20.2976 36.1346 15.7538 36.1346 10.1488C36.1346 4.54378 31.5479 0 25.8901 0C20.2322 0 15.6456 4.54378 15.6456 10.1488C15.6456 15.7538 20.2322 20.2976 25.8901 20.2976Z" fill="url(#paint2_radial_3_240)"/>
<path d="M37.5925 25.8047C43.2504 25.8047 47.837 21.2609 47.837 15.6559C47.837 10.0508 43.2504 5.50705 37.5925 5.50705C31.9346 5.50705 27.348 10.0508 27.348 15.6559C27.348 21.2609 31.9346 25.8047 37.5925 25.8047Z" fill="url(#paint3_radial_3_240)"/>
<path d="M38.2809 37.852C43.9388 37.852 48.5254 33.3082 48.5254 27.7032C48.5254 22.0982 43.9388 17.5544 38.2809 17.5544C32.6231 17.5544 28.0364 22.0982 28.0364 27.7032C28.0364 33.3082 32.6231 37.852 38.2809 37.852Z" fill="url(#paint4_radial_3_240)"/>
<path d="M14.1256 33.8566C16.7869 33.8566 18.9443 31.6992 18.9443 29.038C18.9443 26.3767 16.7869 24.2193 14.1256 24.2193C11.4643 24.2193 9.30695 26.3767 9.30695 29.038C9.30695 31.6992 11.4643 33.8566 14.1256 33.8566Z" fill="#009E49"/>
<path d="M14.1256 20.7774C16.7869 20.7774 18.9443 18.62 18.9443 15.9587C18.9443 13.2975 16.7869 11.1401 14.1256 11.1401C11.4643 11.1401 9.30695 13.2975 9.30695 15.9587C9.30695 18.62 11.4643 20.7774 14.1256 20.7774Z" fill="#009E49"/>
<path d="M25.8281 13.8936C28.4893 13.8936 30.6467 11.7362 30.6467 9.07493C30.6467 6.41365 28.4893 4.25626 25.8281 4.25626C23.1668 4.25626 21.0094 6.41365 21.0094 9.07493C21.0094 11.7362 23.1668 13.8936 25.8281 13.8936Z" fill="#009E49"/>
<path d="M37.5306 20.7774C40.1919 20.7774 42.3493 18.62 42.3493 15.9587C42.3493 13.2975 40.1919 11.1401 37.5306 11.1401C34.8693 11.1401 32.7119 13.2975 32.7119 15.9587C32.7119 18.62 34.8693 20.7774 37.5306 20.7774Z" fill="#009E49"/>
<path d="M37.5306 33.8566C40.1919 33.8566 42.3493 31.6992 42.3493 29.038C42.3493 26.3767 40.1919 24.2193 37.5306 24.2193C34.8693 24.2193 32.7119 26.3767 32.7119 29.038C32.7119 31.6992 34.8693 33.8566 37.5306 33.8566Z" fill="#009E49"/>
<path d="M25.8281 40.7405C28.4893 40.7405 30.6467 38.5831 30.6467 35.9218C30.6467 33.2605 28.4893 31.1031 25.8281 31.1031C23.1668 31.1031 21.0094 33.2605 21.0094 35.9218C21.0094 38.5831 23.1668 40.7405 25.8281 40.7405Z" fill="#009E49"/>
<path d="M25.8281 51.0662C28.4893 51.0662 30.6467 48.9088 30.6467 46.2475C30.6467 43.5862 28.4893 41.4288 25.8281 41.4288C23.1668 41.4288 21.0094 43.5862 21.0094 46.2475C21.0094 48.9088 23.1668 51.0662 25.8281 51.0662Z" fill="#009E49"/>
<path d="M30.6468 35.9218V46.1098H21.0219V35.473L30.6468 35.9218Z" fill="#009E49"/>
<defs>
<radialGradient id="paint0_radial_3_240" cx="0" cy="0" r="1" gradientUnits="userSpaceOnUse" gradientTransform="translate(16.6347 15.5602) scale(11.2771 11.1814)">
<stop stop-color="#69FFB7" stop-opacity="0.15"/>
<stop offset="0.976" stop-color="#26282C" stop-opacity="0"/>
</radialGradient>
<radialGradient id="paint1_radial_3_240" cx="0" cy="0" r="1" gradientUnits="userSpaceOnUse" gradientTransform="translate(25.1397 35.0744) scale(25.1397 24.9256)">
<stop stop-color="#69FFB7" stop-opacity="0.15"/>
<stop offset="0.976" stop-color="#26282C" stop-opacity="0"/>
</radialGradient>
<radialGradient id="paint2_radial_3_240" cx="0" cy="0" r="1" gradientUnits="userSpaceOnUse" gradientTransform="translate(25.8901 10.1488) scale(10.2445 10.1488)">
<stop stop-color="#69FFB7" stop-opacity="0.15"/>
<stop offset="0.976" stop-color="#26282C" stop-opacity="0"/>
</radialGradient>
<radialGradient id="paint3_radial_3_240" cx="0" cy="0" r="1" gradientUnits="userSpaceOnUse" gradientTransform="translate(37.5925 15.6559) scale(10.2445 10.1488)">
<stop stop-color="#69FFB7" stop-opacity="0.15"/>
<stop offset="0.976" stop-color="#26282C" stop-opacity="0"/>
</radialGradient>
<radialGradient id="paint4_radial_3_240" cx="0" cy="0" r="1" gradientUnits="userSpaceOnUse" gradientTransform="translate(38.2809 27.7032) scale(10.2445 10.1488)">
<stop stop-color="#69FFB7" stop-opacity="0.15"/>
<stop offset="0.976" stop-color="#26282C" stop-opacity="0"/>
</radialGradient>
</defs>
</svg>
